<svg width="70" height="63" viewBox="0 0 70 63" fill="none" xmlns="http://www.w3.org/2000/svg">
<path d="M3 29.7386H10.9704V22.3833H15.1248C21.4786 22.3833 25.4827 18.631 25.4827 12.6571V12.6198C25.4827 6.64592 21.4786 2.80025 15.1248 2.80025H3V29.7386ZM13.2262 8.75544C15.858 8.75544 17.437 10.0436 17.437 12.6198V12.6571C17.437 15.2334 15.858 16.5401 13.2262 16.5401H10.9704V8.75544H13.2262Z" fill="black"/>
<path d="M31.6495 30C34.3189 30 36.2551 28.8986 37.4206 26.9384H37.571V29.7386H45.2782V15.7187C45.2782 11.537 41.4246 8.68077 35.6536 8.68077C29.6005 8.68077 26.0101 11.425 25.6905 15.6254L25.6717 15.8681H32.5518L32.5894 15.6814C32.7586 14.8413 33.6421 14.1506 35.2212 14.1506C36.8002 14.1506 37.571 14.8973 37.571 16.0921V16.9322L33.2098 17.2122C27.6831 17.5856 24.6002 19.7698 24.6002 23.7461V23.7648C24.6002 27.3118 27.4575 30 31.6495 30ZM32.1195 23.2047V23.1861C32.1195 22.1593 32.8526 21.5246 34.4881 21.4126L37.571 21.1886V22.4953C37.571 23.8581 36.3115 24.8662 34.4693 24.8662C33.0406 24.8662 32.1195 24.2875 32.1195 23.2047Z" fill="black"/>
<path d="M50.4864 7.28065C52.6482 7.28065 54.3024 5.61917 54.3024 3.64032C54.3024 1.66148 52.6482 0 50.4864 0C48.3246 0 46.6704 1.66148 46.6704 3.64032C46.6704 5.61917 48.3246 7.28065 50.4864 7.28065ZM46.6328 29.7386H54.34V9.12881H46.6328V29.7386Z" fill="black"/>
<path d="M55.6758 29.7386H63.383V19.3217C63.383 16.4468 64.8681 14.9907 67.763 14.9907C68.5525 14.9907 69.3421 15.14 70 15.42V8.97946C69.4173 8.77411 68.7969 8.68077 68.139 8.68077C65.6576 8.68077 64.0598 10.1369 63.5334 12.8251H63.383V9.12881H55.6758V29.7386Z" fill="black"/>
<path d="M14.9856 57.0368C22.2713 57.0368 27.0089 53.1166 27.0089 47.0982V30H19.0059V46.3252C19.0059 49.1227 17.6092 50.6687 15.0045 50.6687C12.3997 50.6687 11.003 49.1227 11.003 46.3252V30H3V47.0982C3 53.1534 7.79423 57.0368 14.9856 57.0368Z" fill="#7646FF"/>
<path d="M28.7842 63H36.5229V53.0429H36.6739C37.6366 55.5092 39.9015 57 42.9215 57C48.1121 57 51 53.1718 51 46.3988V46.3804C51 39.5706 48.0744 35.7975 42.8272 35.7975C39.8827 35.7975 37.6743 37.3252 36.6928 39.9018H36.5229V36.2393H28.7842V63ZM39.826 50.9264C37.7875 50.9264 36.4852 49.2515 36.4852 46.4172V46.3988C36.4852 43.546 37.8064 41.8712 39.826 41.8712C41.8268 41.8712 43.148 43.546 43.148 46.3804V46.3988C43.148 49.1963 41.8457 50.9264 39.826 50.9264Z" fill="#7646FF"/>
<path d="M3 32.2727H11V36.4C11 36.7314 10.7314 37 10.4 37H3.6C3.26863 37 3 36.7314 3 36.4V32.2727Z" fill="#7646FF"/>
<path d="M3 32.2727H11H12.7063C13.2172 32.2727 13.4943 31.6751 13.1644 31.2852L7.45803 24.5413C7.21836 24.2581 6.78164 24.2581 6.54197 24.5413L0.835632 31.2852C0.505674 31.6751 0.782847 32.2727 1.29366 32.2727H3Z" fill="#7646FF"/>
</svg>
